<?xml version="1.0" encoding="utf-8"?>
<!-- Generator: Adobe Illustrator 18.0.0, SVG Export Plug-In . SVG Version: 6.00 Build 0)  -->
<!DOCTYPE svg PUBLIC "-//W3C//DTD SVG 1.1//EN" "http://www.w3.org/Graphics/SVG/1.1/DTD/svg11.dtd">
<svg version="1.1" id="Layer_1" xmlns="http://www.w3.org/2000/svg" xmlns:xlink="http://www.w3.org/1999/xlink" x="0px" y="0px"
	 viewBox="0 0 1000 1000" style="enable-background:new 0 0 1000 1000;" xml:space="preserve">
<symbol  id="New_Symbol" viewBox="-236 -205 471 408">
	<g>
		<polygon style="fill:#010101;" points="-217,-186 -217,186 218,186 218,-186 		"/>
		<path style="fill:#F4EB41;" d="M201,169v-338h-401v338H201 M235,203h-34h-401h-34v-33.5v-338V-203h34h401h34v34.5v338V203L235,203
			z"/>
	</g>
	<g>
		<polygon style="fill:#010101;stroke:#FFFFFF;stroke-width:2;stroke-miterlimit:10;" points="-218,-187 -218,185 217,185 217,-187 
					"/>
		<path style="fill:#F4EB41;stroke:#FFFFFF;stroke-width:2;stroke-miterlimit:10;" d="M200,168v-338h-401v338H200 M234,202h-33h-401
			h-35v-32.5v-338V-204h35h401h33v35.5v338V202L234,202z"/>
	</g>
	<g>
		<path style="fill:#F3F3F3;" d="M-167.4,122.3v8l61.4-34v-7.8l-61.4-33.9v7.8l53.9,29.9L-167.4,122.3z"/>
		<path style="fill:#F3F3F3;" d="M-100.4,44.8h60.5v-7.3h-60.5V44.8z"/>
	</g>
	<polygon style="display:none;fill:none;" points="-236,203 235,203 235,-205 -236,-205 	"/>
</symbol>
<g>
	<polygon style="fill:#61CCEE;stroke:#FFFFFF;stroke-width:2;stroke-miterlimit:10;" points="9.4,417 370.2,208.2 500.2,177.4 
		139.4,386.2 	"/>
	<polygon style="fill:#85D4F1;stroke:#FFFFFF;stroke-width:2;stroke-miterlimit:10;" points="500,177.4 500,593.9 139.7,385.7 	"/>
	<polygon style="fill:#61CCEE;stroke:#FFFFFF;stroke-width:2;stroke-miterlimit:10;" points="990.6,417 629.8,208.2 499.8,177.4 
		860.6,386.2 	"/>
	<polygon style="fill:#61CCEE;stroke:#FFFFFF;stroke-width:2;stroke-miterlimit:10;" points="860.3,385.7 500,593.9 500,177.4 	"/>
	<g id="svg_1_3_">
		<g>
			<path style="fill:#F15B2A;stroke:#FFFFFF;stroke-width:2;stroke-miterlimit:10;" d="M460.6,77.9c0,0-33.9,2.7,25.7-2
				c28.1-2.2,43.2-1.4,21.9,18.2c1.5,15.3,3,80.8,11.1,103.8l141,232.2c28,68.4-62.7,107-168.5,115.4l-2.5,0.2
				c-105.8,8.3-201.4-15.5-184.5-87.5l102.8-251.4c4.5-24-4.3-88.9-5.3-104.2C378.3,86.4,393,83.2,421.1,81c59.6-4.7,25.7-2,25.7-2"
				/>
		</g>
	</g>
	<path style="fill:#FBB040;stroke:#FFFFFF;stroke-width:2;stroke-miterlimit:10;" d="M653.6,235.9c0.3-0.2,0.6-0.4,0.8-0.7
		C654.2,235.5,653.9,235.7,653.6,235.9c1.2,2.5,3,6.6,5.2,11.5c-3.4,2.7-6.9,5.4-10.3,8.1c-32.3,25.8-62.8,53.3-74.9,89.2
		c-1,3-1.9,6-2.6,9.1c-0.7,3.1-1.1,6.2-1.5,9.3c-5.5,37.6,9.1,76,26.3,113.7c0,0,0,0,0,0c1.2,2.6,3.1,6.8,5.4,11.9
		c-38.7,30.3-77.3,62.1-87.9,106.4c-3.7,15.5-3.8,31.2-1.7,46.9l19.8,4.7c-2.4-12.9-3.2-25.5-1.5-38l103.7,24.8
		c-4.4,11.8-11.4,22.6-20.1,32.8l20.2,4.8c9.8-12.9,17.3-26.8,21-42.5c7.7-32.1-12.6-90.8-30.7-134.1
		c38.9-30.4,77.7-62.3,88.3-106.8c7.7-32.2-12.7-91.1-30.7-134.5c3.5-2.7,7-5.5,10.5-8.3c35.2-28,68.2-58.1,78-98.6
		c3.8-15.7,3.6-31.6,1-47.5l-20-4.8c2.8,13.1,3.9,25.9,2.4,38.4l-103.7-24.8c4.2-11.9,11-22.8,19.4-33.2l-20-4.8
		c-9.5,13-16.7,27-20.5,42.7C619,153.1,634.9,194.9,653.6,235.9z M638.1,615.4l-103.8-24.8c4.1-11.5,10.5-22.2,18.6-32.3
		c0.4,0.2,0.8,0.4,1.2,0.6l82.1,19.7C638.8,591,639.7,603.3,638.1,615.4z M630.7,557.7l-63.5-15.2c12.4-12.4,26.8-24.1,41.9-36
		C618,526.5,628.1,549.8,630.7,557.7z M616.4,476.8c-1.9-4.3-3.7-8.3-5.4-12c-6.1-13.4-11.6-26.7-15.9-39.6l63.5,15.2
		C646.2,452.9,631.6,464.8,616.4,476.8z M672.9,424.7c-0.4-0.2-0.8-0.5-1.3-0.6l-82-19.6c-2.6-12.6-3.5-24.9-1.9-37l103.8,24.8
		C687.3,403.9,681,414.6,672.9,424.7z M693.6,336.7c2.6,12.7,3.6,25.1,2,37.2L592,349.1c4.1-11.5,10.5-22,18.5-32.1l82,19.6
		C692.9,336.8,693.2,336.7,693.6,336.7z M624.9,301.1c9.6-9.6,20.4-18.8,31.8-27.9c3.3-2.7,6.6-5.3,10-8c8.8,20,18.9,43.2,21.5,51.1
		L624.9,301.1z M684.1,227.6c-3.3,2.6-6.6,5.3-10,7.9c-1.8-4.2-3.6-8-5.2-11.6c-6.1-13.6-11.7-26.9-15.9-40l63.5,15.2
		C706.7,208.9,695.7,218.2,684.1,227.6z M749.2,151c-4.1,11.5-10.4,22.1-18.4,32.1l-83.3-20c-2.6-12.6-3.4-24.9-1.9-37L749.2,151z"
		/>
	
		<use xlink:href="#New_Symbol"  width="471" height="408" id="XMLID_1_" x="-236" y="-205" transform="matrix(0.7505 0.1483 0.1483 -0.7505 562.0963 482.4739)" style="overflow:visible;"/>
	<polygon style="fill:#85D4F1;stroke:#FFFFFF;stroke-width:2;stroke-miterlimit:10;" points="499.8,593.9 499.8,946.4 860.1,738.2 
		860.1,385.7 	"/>
	<line style="fill:none;" x1="500.1" y1="176.4" x2="500.1" y2="176.4"/>
	<g>
		<g>
			
				<rect x="270.4" y="133.1" transform="matrix(-0.9684 0.2494 -0.2494 -0.9684 727.7108 874.9514)" style="fill:#6DBE46;" width="76.1" height="700.8"/>
			<path style="fill:#FFFFFF;" d="M257.2,135.9l174.3,676.8l-71.7,18.5L185.4,154.4L257.2,135.9 M258.6,133.5l-1.9,0.5l-71.7,18.5
				L183,153l0.5,1.9l174.3,676.8l0.5,1.9l1.9-0.5l71.7-18.5l1.9-0.5l-0.5-1.9L259.1,135.4L258.6,133.5L258.6,133.5z"/>
		</g>
		<line style="fill:none;stroke:#333333;stroke-miterlimit:10;" x1="200.6" y1="213.2" x2="229.9" y2="205.7"/>
		<line style="fill:none;stroke:#333333;stroke-width:0.5;stroke-miterlimit:10;" x1="204.8" y1="229.5" x2="217.8" y2="226.2"/>
		<line style="fill:none;stroke:#333333;stroke-width:0.5;stroke-miterlimit:10;" x1="209" y1="245.8" x2="222" y2="242.5"/>
		<line style="fill:none;stroke:#333333;stroke-width:0.5;stroke-miterlimit:10;" x1="213.2" y1="262.1" x2="226.2" y2="258.8"/>
		<line style="fill:none;stroke:#333333;stroke-width:0.5;stroke-miterlimit:10;" x1="217.4" y1="278.5" x2="230.4" y2="275.1"/>
		<line style="fill:none;stroke:#333333;stroke-width:0.5;stroke-miterlimit:10;" x1="221.6" y1="294.8" x2="234.6" y2="291.4"/>
		<line style="fill:none;stroke:#333333;stroke-width:0.5;stroke-miterlimit:10;" x1="229.9" y1="327.1" x2="242.9" y2="323.8"/>
		<line style="fill:none;stroke:#333333;stroke-width:0.5;stroke-miterlimit:10;" x1="234.1" y1="343.4" x2="247.1" y2="340.1"/>
		<line style="fill:none;stroke:#333333;stroke-width:0.5;stroke-miterlimit:10;" x1="238.3" y1="359.7" x2="251.3" y2="356.4"/>
		<line style="fill:none;stroke:#333333;stroke-width:0.5;stroke-miterlimit:10;" x1="242.5" y1="376" x2="255.5" y2="372.7"/>
		<line style="fill:none;stroke:#333333;stroke-width:0.5;stroke-miterlimit:10;" x1="246.7" y1="392.3" x2="259.7" y2="389"/>
		<line style="fill:none;stroke:#333333;stroke-width:0.5;stroke-miterlimit:10;" x1="255" y1="424.7" x2="268.1" y2="421.3"/>
		<line style="fill:none;stroke:#333333;stroke-width:0.5;stroke-miterlimit:10;" x1="259.2" y1="441" x2="272.3" y2="437.6"/>
		<line style="fill:none;stroke:#333333;stroke-width:0.5;stroke-miterlimit:10;" x1="263.4" y1="457.3" x2="276.5" y2="453.9"/>
		<line style="fill:none;stroke:#333333;stroke-width:0.5;stroke-miterlimit:10;" x1="267.6" y1="473.6" x2="280.7" y2="470.2"/>
		<line style="fill:none;stroke:#333333;stroke-width:0.5;stroke-miterlimit:10;" x1="271.8" y1="489.9" x2="284.9" y2="486.5"/>
		<line style="fill:none;stroke:#333333;stroke-width:0.5;stroke-miterlimit:10;" x1="280.1" y1="522.3" x2="293.2" y2="518.9"/>
		<line style="fill:none;stroke:#333333;stroke-width:0.5;stroke-miterlimit:10;" x1="284.3" y1="538.6" x2="297.4" y2="535.2"/>
		<line style="fill:none;stroke:#333333;stroke-width:0.5;stroke-miterlimit:10;" x1="288.5" y1="554.9" x2="301.6" y2="551.5"/>
		<line style="fill:none;stroke:#333333;stroke-width:0.5;stroke-miterlimit:10;" x1="292.7" y1="571.2" x2="305.8" y2="567.8"/>
		<line style="fill:none;stroke:#333333;stroke-width:0.5;stroke-miterlimit:10;" x1="296.9" y1="587.5" x2="310" y2="584.1"/>
		<line style="fill:none;stroke:#333333;stroke-width:0.5;stroke-miterlimit:10;" x1="305.3" y1="619.8" x2="318.3" y2="616.5"/>
		<line style="fill:none;stroke:#333333;stroke-width:0.5;stroke-miterlimit:10;" x1="309.5" y1="636.1" x2="322.5" y2="632.8"/>
		<line style="fill:none;stroke:#333333;stroke-width:0.5;stroke-miterlimit:10;" x1="313.7" y1="652.4" x2="326.7" y2="649.1"/>
		<line style="fill:none;stroke:#333333;stroke-width:0.5;stroke-miterlimit:10;" x1="317.9" y1="668.8" x2="330.9" y2="665.4"/>
		<line style="fill:none;stroke:#333333;stroke-width:0.5;stroke-miterlimit:10;" x1="322.1" y1="685.1" x2="335.1" y2="681.7"/>
		<line style="fill:none;stroke:#333333;stroke-width:0.5;stroke-miterlimit:10;" x1="330.4" y1="717.4" x2="343.4" y2="714.1"/>
		<line style="fill:none;stroke:#333333;stroke-width:0.5;stroke-miterlimit:10;" x1="334.6" y1="733.7" x2="347.6" y2="730.4"/>
		<line style="fill:none;stroke:#333333;stroke-width:0.5;stroke-miterlimit:10;" x1="338.8" y1="750" x2="351.8" y2="746.7"/>
		<line style="fill:none;stroke:#333333;stroke-width:0.5;stroke-miterlimit:10;" x1="343" y1="766.3" x2="356" y2="763"/>
		<line style="fill:none;stroke:#333333;stroke-width:0.5;stroke-miterlimit:10;" x1="347.2" y1="782.6" x2="360.2" y2="779.3"/>
		<line style="fill:none;stroke:#333333;stroke-miterlimit:10;" x1="225.8" y1="311.1" x2="255.1" y2="303.5"/>
		<line style="fill:none;stroke:#333333;stroke-miterlimit:10;" x1="251" y1="408.9" x2="280.3" y2="401.3"/>
		<line style="fill:none;stroke:#333333;stroke-miterlimit:10;" x1="276.1" y1="506.7" x2="305.5" y2="499.2"/>
		<line style="fill:none;stroke:#333333;stroke-miterlimit:10;" x1="301.3" y1="604.6" x2="330.7" y2="597"/>
		<line style="fill:none;stroke:#333333;stroke-miterlimit:10;" x1="326.5" y1="702.4" x2="355.9" y2="694.8"/>
		<line style="fill:none;stroke:#333333;stroke-miterlimit:10;" x1="351.7" y1="800.2" x2="381.1" y2="792.7"/>
		<g>
			<path style="fill:#010101;" d="M241.8,185.2l6.5-1.7c1.8-0.5,3.5-0.2,5.1,0.7c1.6,1,2.6,2.3,3.1,4.1l4.2,16.3
				c0.5,1.8,0.2,3.5-0.7,5.1c-0.9,1.6-2.3,2.7-4.1,3.1l-6.5,1.7c-1.8,0.5-3.5,0.2-5.1-0.7c-1.6-1-2.6-2.3-3.1-4.1l-4.2-16.3
				c-0.5-1.8-0.2-3.5,0.7-5.1C238.7,186.6,240.1,185.6,241.8,185.2z M249.9,189.4c-0.9-1.7-2.2-2.3-3.9-1.9
				c-0.9,0.2-1.6,0.7-2.1,1.6c-0.5,0.8-0.6,1.6-0.4,2.5l2.9,11.1L249.9,189.4z M247.9,208.5c0.4,0.9,0.9,1.5,1.6,1.8
				s1.4,0.4,2.3,0.1c0.9-0.2,1.6-0.8,2.1-1.6c0.5-0.8,0.6-1.6,0.4-2.5l-2.9-11.1L247.9,208.5z"/>
		</g>
		<g>
			<path style="fill:#010101;" d="M274.5,312l-5.9-22.8l-3.3,0.8l-0.8-3.2l5.7-5l3.3-0.8l7.6,29.3L274.5,312z"/>
		</g>
		<g>
			<path style="fill:#010101;" d="M299.6,409.5l-5.9-22.8l-3.3,0.8l-0.8-3.2l5.7-5l3.3-0.8l7.6,29.3L299.6,409.5z"/>
		</g>
		<g>
			<path style="fill:#010101;" d="M317.2,477.6l6.5-1.7c1.8-0.5,3.5-0.2,5.1,0.7c1.6,1,2.6,2.3,3.1,4.1l4.2,16.3
				c0.5,1.8,0.2,3.5-0.7,5.1c-0.9,1.6-2.3,2.7-4.1,3.1l-6.5,1.7c-1.8,0.5-3.5,0.2-5.1-0.7c-1.6-0.9-2.6-2.3-3.1-4.1l-4.2-16.3
				c-0.5-1.8-0.2-3.5,0.7-5.1C314,479.1,315.4,478.1,317.2,477.6z M325.2,481.9c-0.9-1.7-2.2-2.3-3.9-1.9c-0.9,0.2-1.6,0.7-2.1,1.6
				c-0.5,0.8-0.6,1.6-0.4,2.5l2.9,11.1L325.2,481.9z M323.2,501c0.4,0.9,0.9,1.5,1.6,1.8c0.7,0.3,1.4,0.4,2.3,0.1
				c0.9-0.2,1.6-0.8,2.1-1.6c0.5-0.8,0.6-1.6,0.4-2.5l-2.9-11.1L323.2,501z"/>
		</g>
		<g>
			<path style="fill:#010101;" d="M349.8,604.5l-5.9-22.8l-3.3,0.8l-0.8-3.2l5.7-5l3.3-0.8l7.6,29.3L349.8,604.5z"/>
		</g>
	</g>
	<g>
		<path style="fill:#010101;" d="M381.7,598.8L381.7,598.8l-3.1,4.2l-1.8-2.1l3.9-5.2l2.7-1.3l11.3,23.7l-3.1,1.5L381.7,598.8z"/>
	</g>
	<g>
		<path style="fill:#010101;" d="M424.9,689.8L424.9,689.8l-3.1,4.2l-1.8-2.1l3.9-5.2l2.7-1.3l11.3,23.7l-3.1,1.5L424.9,689.8z"/>
	</g>
	<polygon style="fill:#61CCEE;stroke:#FFFFFF;stroke-width:2;stroke-miterlimit:10;" points="139.5,385.7 139.5,738.2 499.8,946.4 
		499.8,593.9 	"/>
	
		<rect x="54.8" y="474.3" transform="matrix(-0.866 -0.5 0.5 -0.866 195.8392 1230.0902)" style="fill:#85D4F1;stroke:#FFFFFF;stroke-width:2;stroke-miterlimit:10;" width="415.9" height="229"/>
	
		<rect x="529.5" y="474.3" transform="matrix(0.866 -0.5 0.5 0.866 -195.6122 447.5803)" style="fill:#A5DEF4;stroke:#FFFFFF;stroke-width:2;stroke-miterlimit:10;" width="415.9" height="229"/>
</g>
<g>
</g>
<g>
</g>
<g>
</g>
<g>
</g>
<g>
</g>
<g>
</g>
<g>
</g>
<g>
</g>
<g>
</g>
</svg>
